<svg viewBox="0 0 1260 1024" version="1.1" xmlns="http://www.w3.org/2000/svg">
  <g transform="translate(113.4 92.16) scale(.82)">
    <path d="M92.013863 377.286984v485.034762a161.678254 161.678254 0 0 0 161.678254 161.678254h377.249259V377.286984z" fill="#8E887E"/>
    <path d="M630.941376 377.286984v646.713016h377.24926a161.678254 161.678254 0 0 0 161.678254-161.678254V377.286984z" fill="#B7B0A3"/>
    <path d="M92.013863 377.286984L2.012968 68.481519A53.892751 53.892751 0 0 1 55.90572 0.037725h386.411027a107.785503 107.785503 0 0 1 103.474082 78.144489L630.941376 377.286984" fill="#756F67"/>
    <path d="M1169.86889 377.286984l88.384112-308.805465a53.892751 53.892751 0 0 0-53.892752-68.443794h-384.255317a107.785503 107.785503 0 0 0-103.474082 78.144489L630.941376 377.286984" fill="#9E978B"/>
  </g>
</svg>
